<svg xmlns="http://www.w3.org/2000/svg" viewBox="0 0 527.24 130"><defs><style>.cls-1{fill:#eb6039;}.cls-2{fill:#222;}</style></defs><g id="Layer_2" data-name="Layer 2"><g id="Layer_1-2" data-name="Layer 1"><path class="cls-1" d="M117,81a54.32,54.32,0,0,1-79.06,31.13A48.61,48.61,0,0,0,95.8,81H84.34A37.91,37.91,0,0,1,31,97.89a32.22,32.22,0,0,0,3.42.18A33.32,33.32,0,0,0,63.33,81H50.09a22.41,22.41,0,1,1,6.1-21.3H34.38V70.32H67.46V65A33.12,33.12,0,0,0,34.38,31.93a32.22,32.22,0,0,0-3.42.18A37.91,37.91,0,0,1,87.49,70.34H98.21a49.42,49.42,0,0,0,.3-5.34,48.62,48.62,0,0,0-60.6-47.11A54.33,54.33,0,0,1,119.37,65a52.45,52.45,0,0,1-.27,5.34h10.66c.15-1.76.24-3.54.24-5.34a65,65,0,1,0-2,16Z"/><path class="cls-2" d="M516.87,44.24V39.36h-1.76V38.23h4.8v1.13h-1.75v4.88Z"/><path class="cls-2" d="M526,44.24V39.91l-1.7,4.33h-.56L522,39.91v4.33h-1.28v-6h1.79L524,42l1.46-3.76h1.81v6Z"/><path class="cls-2" d="M261.4,102.81h58.22V89.65H274.55V76.89h39.37V63.73H274.55V51h45.07V37.81H261.4Z"/><path class="cls-2" d="M421.82,102.81H435v-65H421.82Z"/><path class="cls-2" d="M332.37,102.81h18.17l11.94-13.08-9.12-9.91Z"/><path class="cls-2" d="M391.7,102.81h18.18l-29.67-32.5,29.67-32.5H391.7L371.12,60.35,350.54,37.81H332.37L362,70.29l0,0,19.26,20.94,0,0Z"/><path class="cls-2" d="M175.5,102.81h46.33a24.66,24.66,0,0,0,24.62-24.63V62.43a24.65,24.65,0,0,0-24.62-24.62H175.5V51h46.39a11.39,11.39,0,0,1,11.38,11.38V78.25a11.39,11.39,0,0,1-11.38,11.38H188.68V63.71H175.5Z"/><path class="cls-2" d="M447.42,89.22a23.67,23.67,0,0,0,8.56,10,24.28,24.28,0,0,0,13.39,4.05h27.25a23.71,23.71,0,0,0,12.14-3.33A20.31,20.31,0,0,0,519,82.59a17.43,17.43,0,0,0-3.11-10.14c-2.7-3.93-6.71-6.45-12.27-7.71-3.51-.81-8.67-1.12-15.31-.92a3.25,3.25,0,0,0-.7,0l-.28,0h-8.75c-6.47,0-8.73,0-9.23-.08-6.25-.64-7.57-3.5-7.57-5.79a6.53,6.53,0,0,1,1-3.45c1.68-2.85,4.64-4.37,8.58-4.37h24.88a11.09,11.09,0,0,1,10.13,6.23l11.76-5a23.2,23.2,0,0,0-8.56-10,23.79,23.79,0,0,0-13.33-4H471.4a23.4,23.4,0,0,0-12.15,3.33A20.48,20.48,0,0,0,449,58a17.31,17.31,0,0,0,3.09,10.07c2.65,3.94,6.53,6.46,11.88,7.72,3.45.8,8.48,1.11,15,.92l9.7-.07a63.33,63.33,0,0,1,9.62.14c5.28.52,7.95,2.47,7.95,5.79a6.52,6.52,0,0,1-1,3.45c-1.71,2.9-4.6,4.37-8.58,4.37H469.37a11.27,11.27,0,0,1-10.19-6.23Z"/></g></g></svg>